<svg xmlns="http://www.w3.org/2000/svg" width="103" height="70" viewBox="0 0 103 70"><defs><style>.a,.b{fill:#fa0;}.a{fill-rule:evenodd;}</style></defs><path class="a" d="M68.448,56.137l1.321,1.321L68.518,58.71,67.2,57.395a4.392,4.392,0,0,1-2.44.734,3.889,3.889,0,0,1-.545-.051l-.066-.009-.64.641A3.534,3.534,0,0,1,57.7,54.97a2.636,2.636,0,0,1-1.073-4.4l.626-.626L45.3,38h7.509l8.194,8.194.626-.626a2.653,2.653,0,0,1,3.755,0,2.509,2.509,0,0,1,.6,1.084,3.536,3.536,0,0,1,3.776,5.8l-.676.676A4.562,4.562,0,0,1,68.448,56.137Zm0-4.867A1.771,1.771,0,1,0,66.014,48.7l-.625.625v0l-.015.015a4.376,4.376,0,0,1,2.518,1.237A4.1,4.1,0,0,1,68.448,51.27Zm-10.569.557a.9.9,0,0,0,0,1.251.883.883,0,0,0,1.251,0l5.008-5.007a.885.885,0,0,0-1.251-1.251Zm1.877,3.128a1.771,1.771,0,1,0,2.567,2.44,4.472,4.472,0,0,1-.689-.563A4.378,4.378,0,0,1,60.4,54.314Z" transform="translate(10.561 10.011)"/><path class="a" d="M36.189,22.138l-10.4-10.4A2.6,2.6,0,0,0,22.108,8.35a2.656,2.656,0,1,0-3.462,3.462,2.54,2.54,0,0,0,.382,3.178,2.637,2.637,0,0,0,3,.5l6.649,6.649ZM20.28,12.487a.885.885,0,0,0,1.252,1.252l2.5-2.5a.885.885,0,1,0-1.251-1.251l-1.249,1.249,0,0h0Z" transform="translate(3.991 1.711)"/><path class="a" d="M19.357,56.137l-1.321,1.321,1.251,1.251L20.6,57.395a4.392,4.392,0,0,0,2.44.734,3.891,3.891,0,0,0,.545-.051l.066-.009.64.641A3.534,3.534,0,0,0,30.1,54.97a2.636,2.636,0,0,0,1.073-4.4l-.626-.626L42.5,38H34.991L26.8,46.194l-.626-.626a2.653,2.653,0,0,0-3.755,0,2.509,2.509,0,0,0-.6,1.084,3.536,3.536,0,0,0-3.776,5.8l.676.676A4.562,4.562,0,0,0,19.357,56.137Zm0-4.867A1.771,1.771,0,1,1,21.79,48.7l.625.625v0l.015.015a4.376,4.376,0,0,0-2.518,1.237A4.1,4.1,0,0,0,19.357,51.27Zm10.569.557a.9.9,0,0,1,0,1.251.883.883,0,0,1-1.251,0l-5.008-5.007a.885.885,0,0,1,1.251-1.251Zm-1.877,3.128a1.771,1.771,0,1,1-2.567,2.44,4.465,4.465,0,0,0,.689-.563,4.378,4.378,0,0,0,1.237-2.519Z" transform="translate(3.963 10.011)"/><path class="a" d="M50.333,22.138h7.509l6.649-6.649a2.637,2.637,0,0,0,3-.5,2.54,2.54,0,0,0,.382-3.178A2.656,2.656,0,1,0,64.414,8.35a2.6,2.6,0,0,0-3.677,3.385Zm15.909-9.651a.885.885,0,1,1-1.252,1.252l-2.5-2.5a.885.885,0,1,1,1.252-1.251l1.249,1.249,0,0h0Z" transform="translate(11.815 1.711)"/><path class="b" d="M0,39.006q.52-2.485.994-4.9.2-1.017.407-2.124t.384-2.169q.2-1.085.339-2.079.158-1.017.271-1.853a6.2,6.2,0,0,0-1.062-.045A3.087,3.087,0,0,1,.294,25.7q.023-.362.023-.836t.023-.949q.023-.52.045-1.107.587.045,1.175.068t1.175.023q1.152,0,2.214-.045,1.085-.068,1.988-.136.926-.09,1.808-.2L8.5,23.732q-.113.52-.226,1.062-.09.542-.181.926a7.591,7.591,0,0,1-1.017.2q-.5.045-.994.136-.158.768-.339,1.717-.181.926-.362,1.943-.158.994-.316,2.033t-.316,1.988q-.362,2.237-.678,4.632Z" transform="translate(0 5.912)"/><path class="b" d="M4.973,39.015q.61-3.005,1.175-5.874.2-1.22.452-2.531.249-1.333.452-2.621.226-1.31.407-2.508.2-1.22.316-2.214a15.354,15.354,0,0,1,2.779-.587,21.885,21.885,0,0,1,2.96-.2,4.334,4.334,0,0,1,1.446.2,1.972,1.972,0,0,1,.9.587,2.006,2.006,0,0,1,.474.859,4.206,4.206,0,0,1,.136,1.107,5.248,5.248,0,0,1-.316,1.785,7.489,7.489,0,0,1-.859,1.649,8.364,8.364,0,0,1-1.22,1.423A6.513,6.513,0,0,1,12.61,31.13q.407.9.859,1.988.474,1.062.881,2.033.452,1.13.926,2.259l-3.5,1.22q-.452-1.559-.813-2.937-.158-.565-.316-1.152-.158-.61-.294-1.13-.136-.542-.226-.949a5.784,5.784,0,0,1-.113-.633l-.294.09q-.136.723-.339,1.762Q9.2,34.722,9.04,35.694q-.2,1.152-.407,2.372Zm5.31-9.806a3.061,3.061,0,0,0,1.039-.362,7.569,7.569,0,0,0,1.2-.746,7.186,7.186,0,0,0,.972-.926,1.377,1.377,0,0,0,.407-.836.478.478,0,0,0-.158-.384.914.914,0,0,0-.452-.226,2.442,2.442,0,0,0-.61-.113q-.339-.023-.7-.023-.249,0-.52.023h-.452Z" transform="translate(1.269 5.903)"/><path class="b" d="M21.311,38.586q-.565.09-1.243.2l-1.22.2q.09-.746.181-1.469.068-.633.113-1.265.068-.633.113-1.085H17.289l-.9,3.254-1.175.158q-.678.068-1.265.136l-1.423.181q.9-3.005,1.785-5.92.362-1.22.746-2.553.407-1.333.791-2.644.407-1.333.768-2.553T17.244,23q1.536-.113,3.118-.271,1.6-.158,3.118-.429-.068.723-.158,1.808-.068,1.062-.136,2.327t-.136,2.644q-.068,1.378-.136,2.711-.113,3.118-.249,6.62Q21.988,38.519,21.311,38.586Zm-3.479-5.671h.316q.249-.023.5-.023.271-.023.5-.023a2.549,2.549,0,0,0,.316-.045q0-.136.023-.452.045-.339.068-.746.045-.429.09-.926t.09-.972q.09-1.152.226-2.485l.136-1.966-.339.023-.52,1.943Z" transform="translate(2.962 5.856)"/><path class="b" d="M23.8,41q.068-.339.136-.723.068-.316.158-.678t.2-.678a4.014,4.014,0,0,1-1.649-.542,5.8,5.8,0,0,1-1.582-1.446l1.627-3.3a4.583,4.583,0,0,0,.407.655q.271.316.565.61a3.641,3.641,0,0,0,.655.452,1.355,1.355,0,0,0,.633.181,1.709,1.709,0,0,0,1.062-.362,1.6,1.6,0,0,0,.474-1.31,1.384,1.384,0,0,0-.294-.813,5.847,5.847,0,0,0-.723-.813q-.407-.429-.926-.881-.5-.474-.926-.972a6.993,6.993,0,0,1-.7-1.085,2.733,2.733,0,0,1-.271-1.2,3.078,3.078,0,0,1,.294-1.31,4.637,4.637,0,0,1,.836-1.2A7.058,7.058,0,0,1,25,24.615a11.691,11.691,0,0,1,1.423-.746q.181-.836.316-1.378.158-.542.339-1.13L30.17,21l-.9,2.282a3.856,3.856,0,0,1,1.13.2,2.389,2.389,0,0,1,.926.5,2.092,2.092,0,0,1,.633.836,3.1,3.1,0,0,1,.226,1.243,4.008,4.008,0,0,1-.045.61q-.045.294-.09.633l-3.254.723a3.081,3.081,0,0,1,.068-.339.664.664,0,0,0,.023-.158,1.454,1.454,0,0,0-.271-.994.77.77,0,0,0-.61-.294,1.147,1.147,0,0,0-.474.113,2.244,2.244,0,0,0-.452.249,1.288,1.288,0,0,0-.339.407,1.242,1.242,0,0,0-.113.52,1.063,1.063,0,0,0,.294.7,7.186,7.186,0,0,0,.768.655q.452.339.972.746a5.9,5.9,0,0,1,.994.949,4.755,4.755,0,0,1,.746,1.265,4.2,4.2,0,0,1,.316,1.695,5.083,5.083,0,0,1-.294,1.74,4.964,4.964,0,0,1-.836,1.446,5.444,5.444,0,0,1-1.22,1.13,6.052,6.052,0,0,1-1.536.746q-.09.633-.158,1.265-.045.633-.045.881Z" transform="translate(4.982 5.526)"/><path class="b" d="M28.812,39.079q.587-3.118,1.152-6.123.2-1.265.452-2.621.249-1.378.474-2.711t.429-2.576q.2-1.265.362-2.3l3.66-.249q-.384,1.582-.768,3.3-.362,1.717-.678,3.344l2.237-.249q.316-1.6.565-3.1.249-1.514.655-3.118A11.573,11.573,0,0,1,38.5,22.54q.633-.068,1.175-.113t.9-.068l.384-.045q-.316,1.017-.61,2.237-.271,1.2-.542,2.508-.271,1.288-.52,2.621t-.452,2.531q-.5,2.869-.926,5.874l-3.525.407q.294-1.356.52-2.644.226-1.085.452-2.259.249-1.175.384-2.011l-2.192.2q-.158.859-.384,1.988-.2,1.13-.384,2.146l-.5,2.44Z" transform="translate(6.808 5.861)"/><path class="b" d="M41.748,39.006q.52-2.485.994-4.9.2-1.017.407-2.124t.384-2.169q.2-1.085.339-2.079.158-1.017.271-1.853a6.2,6.2,0,0,0-1.062-.045,3.087,3.087,0,0,1-1.039-.136q.023-.362.023-.836t.023-.949q.023-.52.045-1.107.587.045,1.175.068t1.175.023q1.152,0,2.214-.045,1.085-.068,1.988-.136.926-.09,1.808-.2l-.249,1.22q-.113.52-.226,1.062-.09.542-.181.926a7.591,7.591,0,0,1-1.017.2q-.5.045-.994.136-.158.768-.339,1.717-.181.926-.362,1.943-.158.994-.316,2.033t-.316,1.988q-.362,2.237-.678,4.632Z" transform="translate(9.893 5.912)"/><path class="b" d="M54.674,38.586q-.565.09-1.243.2l-1.22.2q.09-.746.181-1.469.068-.633.113-1.265.068-.633.113-1.085H50.652l-.9,3.254-1.175.158q-.678.068-1.265.136l-1.423.181q.9-3.005,1.785-5.92.362-1.22.746-2.553.407-1.333.791-2.644.407-1.333.768-2.553T50.607,23q1.536-.113,3.118-.271,1.6-.158,3.118-.429-.068.723-.158,1.808-.068,1.062-.136,2.327t-.136,2.644q-.068,1.378-.136,2.711-.113,3.118-.249,6.62Q55.352,38.519,54.674,38.586Zm-3.479-5.671h.316q.249-.023.5-.023.271-.023.5-.023a2.549,2.549,0,0,0,.316-.045q0-.136.023-.452.045-.339.068-.746.045-.429.09-.926t.09-.972q.09-1.152.226-2.485l.136-1.966-.339.023-.52,1.943Z" transform="translate(10.854 5.856)"/><path class="b" d="M60.231,38.292q-.7,0-1.491.045-.768.045-1.559.136t-1.559.249a9.894,9.894,0,0,0-1.356.339q.136-1.017.316-2.259t.407-2.576q.249-1.333.474-2.689.249-1.356.5-2.6.565-2.96,1.2-6.033l3.954-.52q-.61,2.621-1.175,5.106-.249,1.062-.5,2.214-.249,1.13-.474,2.214t-.407,2.1q-.181,1.017-.294,1.808.565-.045,1.2-.045.655-.023,1.152-.023.023.429.068.859.045.407.09.746a5.455,5.455,0,0,1,.09.61q.045.249.068.339H60.57A2.4,2.4,0,0,0,60.231,38.292Z" transform="translate(12.879 5.879)"/><path class="b" d="M59.608,39.088q.678-3.163,1.265-6.146.226-1.288.474-2.666t.452-2.734q.226-1.356.384-2.621.181-1.288.271-2.327.52.045,1.175.09.655.023,1.22.068.678.045,1.356.045-.023.09-.068.339t-.113.61q-.068.339-.158.768-.068.429-.158.859L65.3,27.611l.136-.023q.226-.362.633-.994.429-.655.881-1.378t.881-1.378q.429-.678.723-1.152,1.13-.09,2.259-.2t2.259-.294q-1.062,1.423-2.056,2.8-.429.587-.881,1.22-.429.633-.859,1.243t-.813,1.175q-.361.565-.655,1.039.5,2.282,1.175,4.406t1.378,4.338q-.52-.023-1.062-.023-.542-.023-1.062-.023-.655,0-1.265.023-.61,0-1.265.023-.2-1.469-.452-3.073-.226-1.627-.429-3.1l-.407.474q-.158.678-.362,1.672-.181.994-.362,1.92-.2,1.085-.429,2.237Z" transform="translate(14.069 5.828)"/><path class="b" d="M67.94,39.042,70.9,22.978l7.14-.61q-.158.5-.271,1.017-.113.429-.226.9-.09.452-.158.813-.226.023-.655.045-.407,0-.881.023H74.04l-.791,4.044q.7-.045,1.31-.068.5-.023,1.017-.023t.768-.023q-.09.633-.181,1.243-.068.61-.181,1.243-.226.023-.746.045-.5,0-1.017.023-.587.023-1.288.045l-.768,4.157,3.3-.52-.226,2.576Z" transform="translate(15.949 5.875)"/><path class="b" d="M74,39.015q.61-3.005,1.175-5.874.2-1.22.452-2.531.249-1.333.452-2.621.226-1.31.407-2.508.2-1.22.316-2.214a15.354,15.354,0,0,1,2.779-.587,21.885,21.885,0,0,1,2.96-.2,4.334,4.334,0,0,1,1.446.2,1.972,1.972,0,0,1,.9.587,2.006,2.006,0,0,1,.474.859,4.206,4.206,0,0,1,.136,1.107,5.248,5.248,0,0,1-.316,1.785,7.489,7.489,0,0,1-.859,1.649,8.364,8.364,0,0,1-1.22,1.423A6.513,6.513,0,0,1,81.64,31.13q.407.9.859,1.988.474,1.062.881,2.033.452,1.13.926,2.259l-3.5,1.22q-.452-1.559-.813-2.937-.158-.565-.316-1.152-.158-.61-.294-1.13-.136-.542-.226-.949a5.787,5.787,0,0,1-.113-.633l-.294.09q-.136.723-.339,1.762-.181,1.039-.339,2.011-.2,1.152-.407,2.372Zm5.31-9.806a3.061,3.061,0,0,0,1.039-.362,7.57,7.57,0,0,0,1.2-.746,7.186,7.186,0,0,0,.972-.926,1.377,1.377,0,0,0,.407-.836.478.478,0,0,0-.158-.384.914.914,0,0,0-.452-.226,2.442,2.442,0,0,0-.61-.113q-.339-.023-.7-.023-.249,0-.52.023h-.452Z" transform="translate(17.497 5.903)"/><path class="a" d="M44.833,2.846a1.426,1.426,0,1,0-.317,0C43.905,4.7,41.7,10.58,38.129,11.126c-2.579.394-5.709-2.243-7.377-3.886a1.136,1.136,0,1,0-.267.124,44.433,44.433,0,0,1,2.765,6.544,22.592,22.592,0,0,0,1.171,2.923c5.42-2.282,16.831-2.282,20.255,0a73.212,73.212,0,0,1,4.162-9.487,1.142,1.142,0,1,0-.362-.221c-1.645,1.655-4.938,4.488-7.793,4C47.176,10.531,45.333,4.7,44.833,2.846Z" transform="translate(6.708)"/><path class="a" d="M36.1,5.736a.856.856,0,1,0-.346.067,22.221,22.221,0,0,1-.272,3.191A2.025,2.025,0,0,0,37.762,8.7,29.98,29.98,0,0,1,36.1,5.736Z" transform="translate(8.31 1.044)"/><path class="a" d="M47.375,5.8a.855.855,0,1,0-.35-.068,29.5,29.5,0,0,1-1.661,2.921,2.046,2.046,0,0,0,2.282.285A21.59,21.59,0,0,1,47.375,5.8Z" transform="translate(10.798 1.044)"/></svg>