<svg width="59" height="45" viewBox="0 0 59 45" fill="none" xmlns="http://www.w3.org/2000/svg">
<path d="M58.6944 40.5541L57.4052 39.8098C57.6593 39.0083 57.5938 38.1349 57.2808 37.3615L57.6617 36.7016C58.4405 35.3538 57.9763 33.6269 56.6294 32.8487C55.635 32.2746 54.4343 32.3811 53.5599 33.0169C53.3855 32.7338 53.1684 32.4787 52.8715 32.3073C51.8573 31.7218 50.5646 32.0708 49.9823 33.0815L49.6295 33.6924L8.21349 9.78083C8.36817 8.92682 8.00417 8.03154 7.21003 7.57216C6.36596 7.08625 5.34646 7.27863 4.68576 7.93445C4.52095 7.71741 4.31267 7.52812 4.06279 7.38327C3.05281 6.80127 1.75653 7.14861 1.17246 8.15846C0.590448 9.16839 0.937774 10.4646 1.94677 11.0482C2.19674 11.1923 2.46524 11.2781 2.73508 11.3124C2.4568 12.3688 2.91105 13.2317 3.68471 13.6792C4.47862 14.1376 5.43618 14.0051 6.09852 13.4441L47.5142 37.3554L47.1617 37.966C46.5761 38.9802 46.9259 40.2727 47.936 40.8558C48.2329 41.0273 48.5607 41.1124 48.8938 41.1281C48.7843 42.2884 49.3658 43.3095 50.2838 43.8395C51.6306 44.6171 53.3591 44.1539 54.1367 42.8071L54.4975 42.1822C54.6587 42.162 54.8202 42.145 54.98 42.1022C55.6582 41.9204 56.2525 41.5489 56.7063 41.0344L57.9894 41.7752C55.9606 45.2892 58.8819 40.2293 58.6944 40.5541ZM4.39035 12.458C4.05341 12.2646 3.93722 11.8309 4.13231 11.4949L4.8363 10.2755L4.83751 10.2744L4.83873 10.2713L5.54231 9.05273C5.73654 8.71625 6.16887 8.60041 6.50523 8.79398C6.84171 8.98826 6.95869 9.41956 6.76346 9.75772L5.35342 12.2C5.1585 12.5366 4.72684 12.6522 4.39035 12.458ZM55.9244 34.0698C56.5609 34.4363 56.8683 35.2559 56.4016 36.0643C56.2281 35.906 56.038 35.764 55.8301 35.6441C55.1583 35.2559 54.395 35.1169 53.6375 35.2116L53.6459 35.1972L53.6462 35.1957L53.9982 34.586C54.3875 33.9127 55.2514 33.6812 55.9244 34.0698ZM48.641 39.6348C48.3139 39.4466 48.194 38.999 48.3831 38.6724L51.2042 33.7863C51.397 33.4501 51.8263 33.3331 52.1665 33.5284C52.5068 33.726 52.6179 34.1565 52.4246 34.4914L49.6034 39.3769C49.4105 39.7131 48.9813 39.8301 48.641 39.6348ZM50.9888 42.6185C50.3167 42.2304 50.0837 41.3661 50.4727 40.6923L50.8339 40.0666C51.1304 40.77 51.6325 41.3614 52.305 41.7497C52.5125 41.8696 52.7291 41.9658 52.9511 42.0405C52.4876 42.8434 51.624 42.9852 50.9888 42.6185Z" fill="white"/>
<path d="M0.99661 40.5541L2.28586 39.8098C2.03174 39.0083 2.09725 38.1349 2.41025 37.3615L2.02928 36.7016C1.25054 35.3538 1.71468 33.6269 3.06167 32.8487C4.056 32.2746 5.25674 32.3811 6.13108 33.0169C6.30556 32.7338 6.52263 32.4787 6.81948 32.3073C7.83372 31.7218 9.12638 32.0708 9.70868 33.0815L10.0615 33.6924L51.4775 9.78083C51.3229 8.92682 51.6868 8.03154 52.481 7.57216C53.3251 7.08625 54.3446 7.27863 55.0053 7.93445C55.1701 7.71741 55.3783 7.52811 55.6282 7.38327C56.6382 6.80127 57.9345 7.14861 58.5186 8.15846C59.1006 9.16839 58.7532 10.4646 57.7442 11.0482C57.4943 11.1923 57.2258 11.2781 56.9559 11.3124C57.2342 12.3688 56.78 13.2317 56.0063 13.6792C55.2124 14.1376 54.2548 14.0051 53.5925 13.4441L12.1769 37.3554L12.5293 37.966C13.1149 38.9802 12.7652 40.2727 11.755 40.8558C11.4581 41.0273 11.1303 41.1124 10.7972 41.1281C10.9067 42.2884 10.3252 43.3095 9.40727 43.8395C8.06045 44.6171 6.33187 44.1539 5.55434 42.8071L5.19352 42.1822C5.03227 42.162 4.87078 42.145 4.71103 42.1022C4.03277 41.9204 3.43856 41.5489 2.98472 41.0344L1.70157 41.7752C3.73038 45.2892 0.809076 40.2293 0.99661 40.5541ZM55.3007 12.458C55.6376 12.2646 55.7538 11.8309 55.5587 11.4949L54.8547 10.2755L54.8535 10.2744L54.8523 10.2713L54.1487 9.05272C53.9545 8.71625 53.5221 8.6004 53.1858 8.79398C52.8493 8.98826 52.7323 9.41956 52.9276 9.75772L54.3376 12.2C54.5325 12.5366 54.9642 12.6522 55.3007 12.458ZM3.76666 34.0698C3.13008 34.4363 2.82268 35.2559 3.28946 36.0643C3.46289 35.906 3.653 35.764 3.86095 35.6442C4.53273 35.2559 5.29606 35.1169 6.05347 35.2116L6.04515 35.1972L6.04481 35.1957L5.69279 34.586C5.30355 33.9127 4.4396 33.6812 3.76666 34.0698ZM11.05 39.6348C11.3771 39.4466 11.497 38.999 11.3079 38.6724L8.48687 33.7863C8.294 33.4501 7.86475 33.3331 7.52449 33.5284C7.18424 33.726 7.07307 34.1565 7.26645 34.4914L10.0877 39.3769C10.2805 39.7131 10.7097 39.8301 11.05 39.6348ZM8.70225 42.6185C9.37437 42.2304 9.60735 41.3661 9.21836 40.6923L8.85711 40.0666C8.56057 40.77 8.05855 41.3614 7.38603 41.7497C7.17848 41.8696 6.96188 41.9658 6.73988 42.0405C7.20343 42.8434 8.06702 42.9852 8.70225 42.6185Z" fill="white"/>
<path d="M29.9589 2.26714C30.5333 2.21022 30.9819 1.72568 30.9819 1.13636C30.9819 0.508767 30.4731 0 29.8455 0C29.2179 0 28.7091 0.508767 28.7091 1.13636C28.7091 1.71696 29.1446 2.19586 29.7067 2.26433C29.2201 3.74517 27.4656 8.42892 24.6183 8.86369C22.5639 9.17737 20.0701 7.07709 18.7411 5.76808C18.9951 5.60685 19.1637 5.32313 19.1637 5.00003C19.1637 4.49796 18.7566 4.09094 18.2546 4.09094C17.7525 4.09094 17.3455 4.49796 17.3455 5.00003C17.3455 5.50211 17.7525 5.90912 18.2546 5.90912C18.3499 5.90912 18.4418 5.89446 18.5281 5.86725C19.4037 7.40021 20.1485 9.46577 20.7308 11.0808C21.1159 12.1486 21.4299 13.0194 21.6637 13.4091C25.9819 11.591 35.0728 11.591 37.8001 13.4091C38.3041 11.5609 40.1745 7.72531 41.1156 5.85091C41.2153 5.88854 41.3234 5.90912 41.4363 5.90912C41.9384 5.90912 42.3454 5.50211 42.3454 5.00003C42.3454 4.49796 41.9384 4.09094 41.4363 4.09094C40.9343 4.09094 40.5272 4.49796 40.5272 5.00003C40.5272 5.26773 40.6429 5.50839 40.8271 5.67476C39.5163 6.99296 36.893 9.24997 34.6183 8.86369C31.8254 8.38944 30.3578 3.74471 29.9589 2.26714Z" fill="white"/>
<path d="M24.201 5.40133C24.4461 5.29801 24.6182 5.05548 24.6182 4.77276C24.6182 4.3962 24.3129 4.09094 23.9364 4.09094C23.5598 4.09094 23.2545 4.3962 23.2545 4.77276C23.2545 5.14565 23.5539 5.44863 23.9254 5.45449C23.9062 6.1619 23.8535 7.2651 23.7091 7.99655C24.3563 8.30595 24.8455 8.22683 25.5273 7.76628C25.1815 7.2407 24.5726 6.18197 24.201 5.40133Z" fill="white"/>
<path d="M35.3112 5.45449C35.6826 5.44849 35.9818 5.14557 35.9818 4.77276C35.9818 4.3962 35.6765 4.09094 35.2999 4.09094C34.9234 4.09094 34.6181 4.3962 34.6181 4.77276C34.6181 5.05422 34.7887 5.29584 35.0321 5.39994C34.6602 6.16974 34.0538 7.21005 33.709 7.72725C34.3908 8.1818 34.88 8.25989 35.5272 7.95452C35.3834 7.23566 35.3306 6.153 35.3112 5.45449Z" fill="white"/>
</svg>
